
<svg height="100%" stroke-miterlimit="10" style="fill-rule:nonzero;clip-rule:evenodd;stroke-linecap:round;stroke-linejoin:round;" version="1.1" viewBox="0 0 2000 2000" width="100%" xmlSpace="preserve" xmlns="http://www.w3.org/2000/svg" xmlnsVectornator="http://vectornator.io" xmlnsXlink="http://www.w3.org/1999/xlink">
<defs/>
<g id="Layer-1" vectornatorLayerName="Layer 1" visibility="hidden">
<path d="M100 1021.47C100 523.6 503.6 120 1001.47 120C1499.33 120 1902.93 523.6 1902.93 1021.47C1902.93 1519.33 1499.33 1922.93 1001.47 1922.93C503.6 1922.93 100 1519.33 100 1021.47Z" fill="#420053" fill-rule="nonzero" opacity="1" stroke="#420053" stroke-linecap="butt" stroke-linejoin="round" stroke-width="40.3426" vectornatorLayerName="Oval 13"/>
</g>
<g id="Layer-2" vectornatorLayerName="Layer 2">
<path d="M1242.04 1431.86L1327.33 1592.55" fill="none" opacity="1" stroke="#50d5ee" stroke-linecap="butt" stroke-linejoin="round" stroke-width="84.3065" vectornatorLayerName="Line 28"/>
<path d="M754.968 1431.86L669.684 1592.55" fill="none" opacity="1" stroke="#50d5ee" stroke-linecap="butt" stroke-linejoin="round" stroke-width="84.3065" vectornatorLayerName="Line 27"/>
<path d="M1002.93 1482.86L1002.95 1702.24" fill="none" opacity="1" stroke="#50d5ee" stroke-linecap="butt" stroke-linejoin="round" stroke-width="84.3065" vectornatorLayerName="Line 26"/>
<path d="M1447.12 897.457L1663.86 629.229" fill="none" opacity="1" stroke="#50d5ee" stroke-linecap="butt" stroke-linejoin="round" stroke-width="84.3065" vectornatorLayerName="Line 25"/>
<path d="M1240.56 753.956L1414.1 429.655" fill="none" opacity="1" stroke="#50d5ee" stroke-linecap="butt" stroke-linejoin="round" stroke-width="84.3065" vectornatorLayerName="Line 24"/>
<path d="M777.017 727.519L635.623 429.655" fill="none" opacity="1" stroke="#50d5ee" stroke-linecap="butt" stroke-linejoin="round" stroke-width="84.3065" vectornatorLayerName="Line 23"/>
<path d="M584.401 869.399L389.93 629.229" fill="none" opacity="1" stroke="#50d5ee" stroke-linecap="butt" stroke-linejoin="round" stroke-width="84.3065" vectornatorLayerName="Line 22"/>
<path d="M1607.66 1071.91L1836.77 899.985" fill="none" opacity="1" stroke="#50d5ee" stroke-linecap="butt" stroke-linejoin="round" stroke-width="84.3065" vectornatorLayerName="Line 21"/>
<path d="M394.167 1084.31L163.225 902.597" fill="none" opacity="1" stroke="#50d5ee" stroke-linecap="butt" stroke-linejoin="round" stroke-width="84.3065" vectornatorLayerName="Line 20"/>
<path d="M1002.93 681.081L1002.93 297.763" fill="none" opacity="1" stroke="#50d5ee" stroke-linecap="butt" stroke-linejoin="round" stroke-width="84.3065" vectornatorLayerName="Line 19"/>
<path d="M389.93 1081.97C389.93 1081.97 664.379 681.081 1002.93 681.081C1341.48 681.081 1615.93 1081.97 1615.93 1081.97C1615.93 1081.97 1341.48 1482.86 1002.93 1482.86C664.379 1482.86 389.93 1081.97 389.93 1081.97Z" fill="none" opacity="1" stroke="#50d5ee" stroke-linecap="butt" stroke-linejoin="round" stroke-width="75.2453" vectornatorLayerName="Oval 12"/>
<path d="M1002.94 686.844C800.063 686.844 635.625 863.752 635.625 1081.97C635.625 1300.18 800.063 1477.06 1002.94 1477.06C1205.81 1477.06 1370.28 1300.19 1370.28 1081.97C1370.28 863.752 1205.81 686.844 1002.94 686.844ZM883.344 820C899.419 819.879 917.826 825.728 937.406 838.188L1213 1013.56C1275.66 1053.43 1275.66 1118.07 1213 1157.94L937.406 1333.31C874.75 1373.18 823.969 1345.3 823.969 1271.03L823.969 900.469C823.969 849.41 847.979 820.266 883.344 820Z" fill="#50d5ee" fill-rule="nonzero" opacity="1" stroke="#50d5ee" stroke-linecap="butt" stroke-linejoin="round" stroke-width="15.283" vectornatorLayerName="Curve 1"/>
</g>
</svg>
